<svg xmlns="http://www.w3.org/2000/svg" viewBox="0 0 489.553 489.553"><path d="M460.536 121.212l-73.74-.001c30.946-2.763 55.291-28.824 55.291-60.478C442.087 27.245 414.842 0 381.353 0c-33.489 0-60.734 27.245-60.734 60.734 0 31.654 24.344 57.715 55.291 60.478l-141.035-.001v-81.89c0-19.319-15.717-35.037-35.036-35.037H37.868c-19.319 0-35.037 15.718-35.037 35.037v244.608c0 19.319 15.718 35.037 35.037 35.037h161.971c19.319 0 35.036-15.717 35.036-35.037v-81.626c24.554 3.776 53.068 8.191 68.346 10.559v241.969c0 19.146 15.576 34.722 34.723 34.722h7.604c17.92 0 32.156-13.608 34.62-33.092.325-2.571.722-5.624 1.175-9.044a2322.3 2322.3 0 0 1 1.202 9.085c2.523 19.46 16.757 33.05 34.613 33.05h7.604c19.146 0 34.724-15.576 34.724-34.722V298.782h1.054c14.438 0 26.184-11.746 26.184-26.184V147.394c-.006-14.436-11.753-26.182-26.188-26.182zM346.619 60.734c0-19.152 15.582-34.734 34.734-34.734s34.733 15.582 34.733 34.734c0 19.153-15.581 34.734-34.733 34.734-19.152 0-34.734-15.581-34.734-34.734zM37.868 30.284h161.971c4.982 0 9.036 4.054 9.036 9.037v44.295H28.831V39.321c0-4.983 4.054-9.037 9.037-9.037zm171.007 253.645c0 4.983-4.054 9.037-9.036 9.037H37.868c-4.983 0-9.037-4.054-9.037-9.037V109.616h180.044v11.595h-7.805c-12.109 0-22.327 8.244-25.348 19.414h-43.369c-7.18 0-13 5.82-13 13s5.82 13 13 13h42.457v4.1c-.004 13.224 9.999 23.964 24.324 26.118 2.742.413 6.035.912 9.74 1.476v85.61zm251.847-11.331a.185.185 0 0 1-.186.184h-14.052c-7.18 0-13 5.82-13 13v169.049c0 4.81-3.913 8.722-8.724 8.722h-7.604c-5.906 0-8.329-6.534-8.83-10.395-3.26-25.133-13.993-101.622-14.101-102.392a13 13 0 0 0-12.866-11.193h-.008a13 13 0 0 0-12.871 11.177c-.108.76-10.805 76.306-14.109 102.45-.486 3.845-2.892 10.353-8.825 10.353h-7.604c-4.81 0-8.723-3.913-8.723-8.722V201.722a13 13 0 0 0-11.007-12.846c-.866-.134-86.96-13.494-115.212-17.743-1.136-.171-1.852-.525-2.191-.75v-22.91a.26.26 0 0 1 .26-.262l156.342.001 10.163 12.733-12.783 76.008a13.01 13.01 0 0 0 3.029 10.709l13.74 15.73a13.001 13.001 0 0 0 19.581.001l13.74-15.729a12.999 12.999 0 0 0 3.03-10.709l-12.783-76.008 10.165-12.734 55.241.001c.103 0 .186.085.186.185v125.199z"/><path d="M182.104 222.625h-8.875v-8.875c0-7.18-5.82-13-13-13s-13 5.82-13 13v8.875h-8.875c-7.18 0-13 5.82-13 13s5.82 13 13 13h8.875v8.875c0 7.18 5.82 13 13 13s13-5.82 13-13v-8.875h8.875c7.18 0 13-5.82 13-13s-5.821-13-13-13zm-83.5 0h-43.75c-7.18 0-13 5.82-13 13s5.82 13 13 13h43.75c7.18 0 13-5.82 13-13s-5.821-13-13-13zm-23.75-30c-7.18 0-13 5.82-13 13s5.82 13 13 13h3.75c7.18 0 13-5.82 13-13s-5.82-13-13-13h-3.75zm3.75 59.5h-3.75c-7.18 0-13 5.82-13 13s5.82 13 13 13h3.75c7.18 0 13-5.82 13-13s-5.821-13-13-13zm-26.536-73.84a12.96 12.96 0 0 0 9.192 3.808c3.327 0 6.654-1.269 9.192-3.808l6.275-6.275 6.275 6.275a12.96 12.96 0 0 0 9.192 3.808c3.327 0 6.654-1.269 9.192-3.808 5.077-5.077 5.077-13.308 0-18.385l-6.275-6.275 6.275-6.275c5.077-5.077 5.077-13.308 0-18.385-5.076-5.077-13.309-5.077-18.385 0l-6.275 6.275-6.275-6.275c-5.076-5.077-13.309-5.077-18.385 0-5.077 5.077-5.077 13.308 0 18.385l6.275 6.275-6.275 6.275c-5.075 5.077-5.075 13.308.002 18.385z"/></svg>