<?xml version="1.0" encoding="iso-8859-1"?>
<!-- Generator: Adobe Illustrator 19.0.0, SVG Export Plug-In . SVG Version: 6.00 Build 0)  -->
<svg version="1.1" id="Capa_1" xmlns="http://www.w3.org/2000/svg" xmlns:xlink="http://www.w3.org/1999/xlink" x="0px" y="0px"
	 viewBox="0 0 512 512" style="enable-background:new 0 0 512 512;" xml:space="preserve">
<g>
	<g>
		<path d="M104.293,310.644c-4.2,0-7.604,3.405-7.604,7.604v85.16c0,4.199,3.404,7.604,7.604,7.604c4.2,0,7.604-3.405,7.604-7.604
			v-85.16C111.897,314.048,108.493,310.644,104.293,310.644z"/>
	</g>
</g>
<g>
	<g>
		<path d="M408.436,310.644c-4.2,0-7.604,3.405-7.604,7.604v85.16c0,4.199,3.404,7.604,7.604,7.604s7.604-3.405,7.604-7.604v-85.16
			C416.04,314.048,412.637,310.644,408.436,310.644z"/>
	</g>
</g>
<g>
	<g>
		<path d="M256.368,310.644c-4.2,0-7.604,3.405-7.604,7.604v85.16c0,4.199,3.404,7.604,7.604,7.604s7.604-3.405,7.604-7.604v-85.16
			C263.972,314.048,260.568,310.644,256.368,310.644z"/>
	</g>
</g>
<g>
	<g>
		<path d="M504.396,461.581h-42.734v-32.915c0-4.199-3.404-7.604-7.604-7.604h-7.283V297.939h7.283c4.2,0,7.604-3.405,7.604-7.604
			V257.42h8.363c4.2,0,7.604-3.405,7.604-7.604v-38.018c0-4.199-3.404-7.604-7.604-7.604h-11.402v-15.876l41.102,25.387
			c1.223,0.755,2.609,1.135,3.996,1.135c1.275,0,2.552-0.32,3.704-0.963c2.408-1.343,3.9-3.884,3.9-6.641v-46.853
			c0-2.636-1.366-5.085-3.608-6.469L260.361,1.135c-2.449-1.513-5.543-1.513-7.992,0L5.012,153.915
			c-2.243,1.385-3.608,3.833-3.608,6.469v46.852c0,2.757,1.492,5.298,3.9,6.641c2.409,1.342,5.352,1.278,7.7-0.171l41.105-25.388
			v15.877H42.704c-4.2,0-7.604,3.405-7.604,7.604v38.018c0,4.199,3.404,7.604,7.604,7.604h8.363v32.915
			c0,4.199,3.404,7.604,7.604,7.604h7.283v123.122h-7.283c-4.2,0-7.604,3.405-7.604,7.604v32.915H7.604
			c-4.2,0-7.604,3.405-7.604,7.604v35.211C0,508.595,3.404,512,7.604,512h496.792c4.2,0,7.604-3.405,7.604-7.604v-35.211
			C512,464.985,508.596,461.581,504.396,461.581z M16.612,193.601v-28.976L256.364,16.542l239.753,148.083v28.977L260.361,47.988
			c-1.225-0.756-2.611-1.135-3.996-1.135s-2.771,0.378-3.996,1.135L16.612,193.601z M58.671,242.212h-8.363v-22.81H362.01
			c4.199,0,7.604-3.405,7.604-7.604s-3.405-7.604-7.604-7.604H69.317v-25.271l187.047-115.53l187.05,115.532v25.268h-45.918
			c-4.199,0-7.604,3.405-7.604,7.604s3.405,7.604,7.604,7.604h64.924v22.81h-8.363h-91.242h-60.826h-91.242h-60.833H58.671z
			 M446.453,282.731h-7.281h-61.47h-7.283V257.42h76.035V282.731z M431.567,297.939v123.122h-46.263V297.939H431.567z
			 M370.419,436.269h7.282h61.47h7.283v25.311h-76.035V436.269z M301.989,421.062h-7.283V297.939h7.283
			c4.2,0,7.604-3.405,7.604-7.604V257.42h45.618v32.915c0,4.199,3.404,7.604,7.604,7.604h7.283v123.122h-7.283
			c-4.2,0-7.604,3.405-7.604,7.604v32.915h-45.618v-32.914C309.593,424.467,306.189,421.062,301.989,421.062z M294.384,282.731
			h-7.282h-61.47h-7.283V257.42h76.035V282.731z M279.499,297.939v123.122h-46.262V297.939H279.499z M218.351,436.269h7.281h61.47
			h7.283v25.311h-76.035V436.269z M149.915,421.061h-7.283v-59.244c0-4.199-3.405-7.604-7.604-7.604s-7.604,3.405-7.604,7.604
			v59.244H81.162V297.939h46.263v28.391c0,4.199,3.405,7.604,7.604,7.604c4.199,0,7.604-3.405,7.604-7.604v-28.391h7.283
			c4.199,0,7.604-3.405,7.604-7.604V257.42h45.625v32.915c0,4.199,3.405,7.604,7.604,7.604h7.283v123.122h-7.283
			c-4.199,0-7.604,3.405-7.604,7.604v32.915h-45.625v-32.915C157.519,424.466,154.114,421.061,149.915,421.061z M66.275,436.269
			h7.283h61.47h7.283v25.311H66.275V436.269z M66.274,282.731V257.42h76.036v25.311h-7.283h-61.47H66.274z M496.792,496.793H15.208
			v-20.004h43.463h91.242h60.833h91.242h60.826h91.242h42.735V496.793z"/>
	</g>
</g>
<g>
	<g>
		<path d="M256.364,97.604c-24.318,0-44.103,19.785-44.103,44.103s19.784,44.103,44.103,44.103
			c24.319,0,44.103-19.784,44.103-44.103C300.467,117.388,280.683,97.604,256.364,97.604z M256.364,170.602
			c-15.933,0-28.895-12.962-28.895-28.895c0-15.933,12.962-28.895,28.895-28.895c15.933,0,28.895,12.962,28.895,28.895
			C285.259,157.64,272.297,170.602,256.364,170.602z"/>
	</g>
</g>
<g>
</g>
<g>
</g>
<g>
</g>
<g>
</g>
<g>
</g>
<g>
</g>
<g>
</g>
<g>
</g>
<g>
</g>
<g>
</g>
<g>
</g>
<g>
</g>
<g>
</g>
<g>
</g>
<g>
</g>
</svg>
