<svg xmlns="http://www.w3.org/2000/svg" viewBox="0 0 215.203 215.203"><path d="M17.106 88.947h4.842a5.94 5.94 0 0 0-.055.771V184h-3.291a6 6 0 0 0 0 12h177.997a6 6 0 0 0 0-12h-3.291V89.718a5.94 5.94 0 0 0-.055-.771h4.842c4.521 0 8.511-2.885 9.927-7.179s-.075-8.986-3.71-11.676L111.17 1.177a6 6 0 0 0-7.137 0L10.888 70.092c-3.634 2.689-5.125 7.382-3.709 11.676s5.405 7.179 9.927 7.179zM112.988 184h-10.773V89.718a5.94 5.94 0 0 0-.055-.771h10.884a5.94 5.94 0 0 0-.055.771V184zm-45.548 0H56.665V89.718a5.94 5.94 0 0 0-.055-.771h10.885a5.94 5.94 0 0 0-.055.771V184zm-33.548 0V95.718h10.773V184H33.892zm45.548 0V95.718h10.774V184H79.44zm45.547 0V95.718h10.774V184h-10.774zm45.549 0V95.718h10.773V184h-10.773zm-12-94.282V184h-10.774V89.718a5.94 5.94 0 0 0-.055-.771h10.885a5.94 5.94 0 0 0-.056.771zm-50.935-76.254l85.802 63.482H21.799l85.802-63.482zm100.273 189.739H7.329a6 6 0 0 0 0 12h200.545a6 6 0 0 0 0-12z"/></svg>