<svg xmlns="http://www.w3.org/2000/svg" viewBox="0 0 512 512"><path d="M104.293 310.644a7.604 7.604 0 0 0-7.604 7.604v85.16a7.604 7.604 0 0 0 15.208 0v-85.16c0-4.2-3.404-7.604-7.604-7.604zm304.143 0a7.604 7.604 0 0 0-7.604 7.604v85.16a7.604 7.604 0 0 0 15.208 0v-85.16c0-4.2-3.403-7.604-7.604-7.604zm-152.068 0a7.604 7.604 0 0 0-7.604 7.604v85.16a7.604 7.604 0 0 0 15.208 0v-85.16c0-4.2-3.404-7.604-7.604-7.604z"/><path d="M504.396 461.581h-42.734v-32.915a7.604 7.604 0 0 0-7.604-7.604h-7.283V297.939h7.283c4.2 0 7.604-3.405 7.604-7.604V257.42h8.363c4.2 0 7.604-3.405 7.604-7.604v-38.018a7.604 7.604 0 0 0-7.604-7.604h-11.402v-15.876l41.102 25.387a7.604 7.604 0 0 0 11.6-6.469v-46.853a7.603 7.603 0 0 0-3.608-6.469L260.361 1.135a7.603 7.603 0 0 0-7.992 0L5.012 153.915a7.602 7.602 0 0 0-3.608 6.469v46.852a7.604 7.604 0 0 0 11.6 6.47l41.105-25.388v15.877H42.704a7.604 7.604 0 0 0-7.604 7.604v38.018a7.604 7.604 0 0 0 7.604 7.604h8.363v32.915a7.604 7.604 0 0 0 7.604 7.604h7.283v123.122h-7.283a7.604 7.604 0 0 0-7.604 7.604v32.915H7.604A7.604 7.604 0 0 0 0 469.185v35.211A7.604 7.604 0 0 0 7.604 512h496.792c4.2 0 7.604-3.405 7.604-7.604v-35.211c0-4.2-3.404-7.604-7.604-7.604zM16.612 193.601v-28.976L256.364 16.542l239.753 148.083v28.977L260.361 47.988a7.605 7.605 0 0 0-7.992 0L16.612 193.601zm42.059 48.611h-8.363v-22.81H362.01a7.605 7.605 0 0 0 0-15.208H69.317v-25.271l187.047-115.53 187.05 115.532v25.268h-45.918a7.605 7.605 0 0 0 0 15.208h64.924v22.81H58.671zm387.782 40.519h-76.034V257.42h76.035v25.311zm-14.886 15.208v123.122h-46.263V297.939h46.263zm-61.148 138.33h76.035v25.311h-76.035v-25.311zm-68.43-15.207h-7.283V297.939h7.283c4.2 0 7.604-3.405 7.604-7.604V257.42h45.618v32.915a7.604 7.604 0 0 0 7.604 7.604h7.283v123.122h-7.283a7.604 7.604 0 0 0-7.604 7.604v32.915h-45.618v-32.914a7.604 7.604 0 0 0-7.604-7.604zm-7.605-138.331h-76.035V257.42h76.035v25.311zm-14.885 15.208v123.122h-46.262V297.939h46.262zm-61.148 138.33h76.034v25.311H218.35v-25.311zm-68.436-15.208h-7.283v-59.244a7.605 7.605 0 0 0-15.208 0v59.244H81.162V297.939h46.263v28.391a7.605 7.605 0 0 0 15.208 0v-28.391h7.283a7.605 7.605 0 0 0 7.604-7.604V257.42h45.625v32.915a7.605 7.605 0 0 0 7.604 7.604h7.283v123.122h-7.283a7.605 7.605 0 0 0-7.604 7.604v32.915H157.52v-32.915a7.606 7.606 0 0 0-7.605-7.604zm-83.64 15.208h76.036v25.311H66.275v-25.311zm-.001-153.538V257.42h76.036v25.311H66.274zm430.518 214.062H15.208v-20.004h481.583v20.004z"/><path d="M256.364 97.604c-24.318 0-44.103 19.785-44.103 44.103s19.784 44.103 44.103 44.103c24.319 0 44.103-19.784 44.103-44.103 0-24.319-19.784-44.103-44.103-44.103zm0 72.998c-15.933 0-28.895-12.962-28.895-28.895s12.962-28.895 28.895-28.895 28.895 12.962 28.895 28.895-12.962 28.895-28.895 28.895z"/></svg>