<svg xmlns="http://www.w3.org/2000/svg" viewBox="0 0 490 490"><path d="M291.596 348.844c-5.893 3.993-15.779 7.987-28.324 7.987-15.402 0-29.087-5.893-38.592-16.924-7.228-7.987-11.98-19.01-13.689-32.695h-11.79v-9.318h10.84v-2.849c0-3.044.187-5.901.378-8.555h-11.218v-9.513h12.549c2.281-13.304 7.987-24.334 15.589-32.127 9.696-10.073 22.054-15.779 37.642-15.779 11.218 0 19.964 3.231 25.288 6.088l-3.803 12.541c-4.753-2.849-12.739-5.317-21.295-5.317-10.264 0-18.628 3.612-25.093 10.455-5.702 5.511-9.505 14.067-11.408 24.14h53.044v9.513h-54.753c-.191 2.468-.381 5.317-.381 7.979v3.425h55.134v9.318h-53.803c1.522 11.023 5.321 19.197 10.455 24.903 7.033 7.411 16.542 11.023 26.806 11.023 10.077 0 18.823-3.799 23.194-6.274l3.23 11.979zM490 172.042H0L245 7.805l245 164.237zM50.138 156.789h389.724L245 26.156 50.138 156.789zm438.909 325.406H.953v-61.339h488.093v61.339zM16.206 466.942h457.588v-30.834H16.206v30.834zm94.378-73.405H49.259V197.156h61.324v196.381zm-46.072-15.253h30.819V212.409H64.512v165.875zm117.495 15.253h-61.339V197.156h61.339v196.381zm-46.086-15.253h30.834V212.409h-30.834v165.875zm233.411 15.253h-61.339V197.156h61.339v196.381zm-46.086-15.253h30.833V212.409h-30.833v165.875zm117.495 15.253h-61.325V197.156h61.325v196.381zm-46.072-15.253h30.819V212.409h-30.819v165.875z"/><path d="M163.194 99.174h13.659c6.212 0 10.725.894 13.54 2.651 2.8 1.773 4.215 4.588 4.215 8.446 0 2.622-.626 4.767-1.847 6.45-1.236 1.683-2.86 2.696-4.901 3.039v.298c2.771.611 4.781 1.773 6.003 3.471 1.236 1.698 1.847 3.962 1.847 6.777 0 4.007-1.445 7.12-4.335 9.354-2.89 2.249-6.807 3.366-11.767 3.366h-16.415V99.174zm9.31 17.368h5.392c2.517 0 4.349-.387 5.481-1.162 1.117-.79 1.683-2.071 1.683-3.873 0-1.683-.611-2.89-1.832-3.62-1.236-.73-3.188-1.087-5.839-1.087h-4.886v9.742zm0 7.373v11.44h6.047c2.562 0 4.454-.492 5.675-1.475 1.221-.983 1.832-2.488 1.832-4.498 0-3.634-2.607-5.467-7.805-5.467h-5.749zm58.822 19.111l-3.188-10.442h-15.983l-3.173 10.442h-10.025l15.477-44.031H225.8l15.536 44.031h-10.01zm-5.407-18.232c-2.934-9.459-4.588-14.806-4.96-16.042-.372-1.251-.641-2.219-.79-2.949-.67 2.562-2.562 8.893-5.675 18.992h11.425zm59.835 18.232h-11.812l-19.081-33.172h-.268c.372 5.854.566 10.04.566 12.542v20.63h-8.312V99.174h11.738l19.036 32.844h.209c-.298-5.705-.447-9.727-.447-12.08V99.174h8.371v43.852zm46.295 0h-10.546l-11.499-18.47-3.918 2.815v15.655h-9.31V99.174h9.31v20.064l3.65-5.154 11.887-14.91h10.308l-15.298 19.409 15.416 24.443z"/></svg>