<svg xmlns="http://www.w3.org/2000/svg" width="349.3" height="209.9" viewBox="139.6 188.2 349.3 209.9"><path fill="#8FC73E" d="M445.3 241.7L417 281l-14.8 1.2-54 78.1 31.1.1 34.2-50.8 24.6-1.9 39.6-46-9-20z"/><path d="M279.1 360.3h3.9v-18.2h-12.4v-82.3H283v-18.2h-51.2v88.9c-8.8 6.2-16.9 9.3-24.3 9.3-5.5 0-6.8-1.2-8.8-3.6-2.1-2.4-3.1-6.8-3.1-13.3v-81.3h-56v18.2h12.3v66.6c0 12.9 3.8 18.1 11.3 25.2 7.5 7.1 17.9 10.6 31.1 10.6 13.5 0 24.4-4.3 37.5-13v11.1h47.3zm75.9-18.1h-13v-82.3h10.8l31.4 38.8 15.4-21.3 13.7-1.1-27.3-34.6h-44v-16.8c0-12 10.5-18.4 20.7-18.4h5.8v-18.3h-17.1c-17.7 0-31 4.6-39.9 13.8-8.9 9.2-10.8 25.9-10.8 39.6h-12.5v18.2h12.5v82.3h-12.5v18.2H342l13-18.1zm86.8-29.8l-25.6 2.1-9.1 12.6 26.9 33.3 43.7-.1v-18.1h-12.4zm33.9 11.8c.4 1.1.6 2.1.6 3.1 0 1.2-.4 2.1-1.2 2.6-.8.6-1.9.9-3.4.9-3.1 0-4.7-1.2-4.7-3.7 0-.4.1-.8.2-1.3s.2-.9.4-1.3l-1.5-.6c-.2.3-.3.8-.4 1.4-.1.6-.2 1.2-.2 1.7 0 1.8.5 3.2 1.6 4.1 1.1 1 2.7 1.5 4.7 1.5s3.5-.5 4.5-1.4c1.1-1 1.6-2.3 1.6-4 0-1.2-.2-2.2-.6-3h-1.6zm-4-2.2c1.3 0 2.4-.2 3.3-.7.9-.5 1.7-1.1 2.2-1.9.5-.8.8-1.8.8-2.9 0-1.7-.6-3.1-1.7-4.1-1.1-1-2.6-1.5-4.6-1.5-1.9 0-3.4.5-4.5 1.5s-1.7 2.3-1.7 4c0 1.7.5 3.1 1.6 4.1 1.1 1 2.6 1.5 4.6 1.5zm-3.5-8.2c.8-.6 2-.9 3.5-.9s2.7.3 3.5.9c.8.6 1.2 1.5 1.2 2.7 0 1.2-.4 2.1-1.2 2.7-.8.6-2 .9-3.5.9-1.6 0-2.7-.3-3.5-.9-.8-.6-1.2-1.5-1.2-2.7 0-1.2.4-2.1 1.2-2.7zm-2.7-11.4c0 .8.2 1.5.5 2.1.3.6.8 1.1 1.4 1.5v.1l-1.6.3v1.5h12V306h-6.3c-1.6 0-2.7-.3-3.4-.8-.7-.5-1-1.4-1-2.5 0-.9.2-1.5.7-1.9.5-.4 1.2-.6 2.2-.6h7.8v-1.8H471c-1.4 0-2.4-.3-3-.8-.6-.5-1-1.4-1-2.5 0-.9.2-1.5.7-1.9.5-.4 1.2-.6 2.2-.6h7.8v-1.8h-7.8c-1.5 0-2.6.3-3.3 1-.7.7-1 1.7-1 3.1 0 .9.2 1.6.5 2.3.4.7.9 1.2 1.5 1.6v.1c-1.5.4-2.1 1.6-2.1 3.5zm-298.1 85.5c-.2.7-.3 1.3-.4 1.9-.2-.9-.5-2.1-.9-3.6l-3.7-12.9H161l-3.2 11.2c-.7 2.3-1.1 4.1-1.3 5.2-.1-.3-.1-.7-.2-1-.1-.3-.2-.7-.2-1-.1-.4-.2-.7-.3-1.1-.1-.4-.2-.9-.4-1.3l-3.2-11.9h-1.4l5.1 18.5h1.1c2.5-8.8 3.8-13.7 4.1-14.6.2-1 .4-1.8.6-2.5.2.7.4 1.7.8 2.9l4.1 14.3h1.1l5.1-18.5h-1.3c-2.6 8.9-3.9 13.7-4.1 14.4zm14.3-10.1c-1.2 0-2.1.2-2.9.6-.8.4-1.4 1-1.9 1.8h-.1l.1-1.8v-6.3h-1.2v19.7h1.2v-7.6c0-1.9.4-3.2 1.1-4 .8-.8 2-1.2 3.6-1.2 1.2 0 2.1.3 2.7.9.6.6.9 1.6.9 3v8.9h1.2v-9c0-3.3-1.5-5-4.7-5zm14.3 0c-1.8 0-3.3.7-4.4 2-1.1 1.3-1.6 3.1-1.6 5.3 0 2.2.6 3.9 1.7 5.2 1.1 1.2 2.7 1.8 4.7 1.8.8 0 1.5-.1 2.2-.2.7-.1 1.4-.4 2.2-.7v-1.1c-.9.4-1.7.6-2.3.7-.6.1-1.3.2-2.1.2-1.6 0-2.8-.5-3.7-1.5-.9-1-1.3-2.4-1.3-4.3h9.9v-1c0-1.9-.5-3.5-1.4-4.6-1-1.2-2.2-1.8-3.9-1.8zm-4.5 6.2c.1-1.6.6-2.9 1.4-3.8.8-.9 1.9-1.3 3.2-1.3 1.2 0 2.2.5 2.9 1.3.7.9 1 2.1 1 3.7h-8.5zm16.7-5.5c-.6.4-1.2 1.1-1.8 2.1h-.1l-.1-2.5h-1.1v13.7h1.3v-7.6c0-1.5.4-2.8 1.1-3.8.8-1 1.7-1.5 2.9-1.5.6 0 1.2.1 1.8.2l.2-1.2c-.7-.1-1.3-.2-1.9-.2-.9.1-1.7.4-2.3.8zm12.1-.7c-1.8 0-3.3.7-4.4 2-1.1 1.3-1.6 3.1-1.6 5.3 0 2.2.6 3.9 1.7 5.2 1.1 1.2 2.7 1.8 4.7 1.8.8 0 1.5-.1 2.2-.2.7-.1 1.4-.4 2.2-.7v-1.1c-.9.4-1.7.6-2.3.7-.6.1-1.3.2-2.1.2-1.6 0-2.8-.5-3.7-1.5-.9-1-1.3-2.4-1.3-4.3h9.9v-1c0-1.9-.5-3.5-1.4-4.6-1-1.2-2.2-1.8-3.9-1.8zm-4.6 6.2c.1-1.6.6-2.9 1.4-3.8.8-.9 1.9-1.3 3.2-1.3 1.2 0 2.2.5 2.9 1.3.7.9 1 2.1 1 3.7h-8.5zm18.2-9.4h6v17.3h1.3v-17.3h6v-1.2h-13.3zm18.8 3.9c-.6.4-1.2 1.1-1.8 2.1h-.1l-.1-2.5h-1.1v13.7h1.2v-7.6c0-1.5.4-2.8 1.1-3.8.8-1 1.7-1.5 2.9-1.5.6 0 1.2.1 1.8.2l.2-1.2c-.7-.1-1.3-.2-1.9-.2-.7.1-1.5.4-2.2.8zm11.8-.6c-1.5 0-3 .4-4.5 1.1l.5 1.1c1.4-.7 2.7-1.1 4-1.1 1.2 0 2 .3 2.6 1 .5.7.8 1.7.8 3v.9l-2.6.1c-2.1 0-3.7.4-4.9 1.2-1.1.7-1.7 1.8-1.7 3.1 0 1.2.4 2.2 1.1 2.9.8.7 1.8 1 3.1 1 1 0 1.9-.2 2.6-.6.7-.4 1.4-1 2.1-1.9h.1l.3 2.2h.9v-9.1c0-1.7-.4-2.9-1.1-3.7-.7-.8-1.8-1.2-3.3-1.2zm3.3 8.3c0 1.5-.4 2.7-1.3 3.5-.8.8-2 1.3-3.5 1.3-1 0-1.7-.2-2.2-.7-.5-.5-.8-1.1-.8-2 0-1.1.4-1.9 1.2-2.4.8-.5 2.2-.8 4.1-.9l2.4-.1.1 1.3zm15.2-9.1c0 1 0 2.1.1 3.1h-.1c-.6-.9-1.2-1.5-1.9-1.9-.7-.4-1.6-.5-2.6-.5-1.9 0-3.3.6-4.3 1.9-1 1.3-1.5 3.1-1.5 5.4 0 2.3.5 4 1.5 5.2 1 1.2 2.5 1.8 4.3 1.8 2 0 3.5-.8 4.5-2.4h.1l.3 2.1h.8v-19.7H283v5zm0 8.1c0 2.1-.4 3.6-1.1 4.5-.7.9-1.9 1.4-3.4 1.4-3 0-4.5-1.9-4.5-5.8 0-2 .4-3.5 1.1-4.6.8-1.1 1.9-1.6 3.4-1.6 1.6 0 2.7.5 3.5 1.4.7.9 1.1 2.5 1.1 4.6v.1zm5.9-7.1h1.2v13.7h-1.2zm12-.3c-2.3 0-3.9.7-4.8 2.2h-.1l-.2-1.9h-1.1v13.7h1.3v-7.6c0-1.9.4-3.2 1.1-4 .8-.8 2-1.2 3.6-1.2 1.2 0 2.1.3 2.7.9.6.6.9 1.6.9 3v8.9h1.2v-9c0-3.3-1.5-5-4.6-5zm13.3 0c-1.5 0-2.7.4-3.5 1.2-.9.8-1.3 1.9-1.3 3.3 0 .9.2 1.7.7 2.4.4.7 1.1 1.2 1.9 1.5-1.2.7-1.8 1.5-1.8 2.4 0 .4.1.8.4 1.1.2.3.6.6 1 .8-1 .2-1.8.7-2.4 1.3-.6.6-.9 1.4-.9 2.4 0 1.2.5 2.1 1.4 2.8.9.7 2.3 1 4 1 2.2 0 3.9-.4 5-1.2 1.2-.8 1.8-1.9 1.8-3.4 0-1.2-.4-2.1-1.2-2.7-.8-.6-1.9-.9-3.4-.9h-2.4c-.8 0-1.3-.1-1.7-.3-.3-.2-.5-.5-.5-1 0-.4.1-.8.4-1.1.3-.4.6-.7 1.1-.9.3.1.7.1 1.3.1 1.5 0 2.7-.4 3.5-1.2.9-.8 1.3-1.9 1.3-3.2 0-1.1-.4-2.2-1.1-3.1l2.8-.2v-.9h-4.4c-.4-.1-1.1-.2-2-.2zm-.8 13.4h2.3c1.3 0 2.2.2 2.7.6.6.4.8 1 .8 1.8 0 2.3-1.8 3.5-5.4 3.5-2.8 0-4.2-.9-4.2-2.8 0-2.1 1.2-3.1 3.8-3.1zm4.3-8.8c0 1.1-.3 1.9-.9 2.5-.6.6-1.5.9-2.6.9s-1.9-.3-2.6-.9c-.6-.6-1-1.4-1-2.5s.3-2 .9-2.6c.6-.6 1.5-.9 2.6-.9s2 .3 2.6.9c.7.5 1 1.4 1 2.6zm21.5 7.2l-6.6-16.3h-2v18.5h1.2V378c0-1.1 0-2.2-.1-3.2h.1l6.9 17.1h.8l6.9-17h.1c-.1 1-.1 2.1-.1 3v14h1.3v-18.5h-1.9l-6.6 16.2zm18.2-11.7c-1.5 0-3 .4-4.5 1.1l.5 1.1c1.4-.7 2.7-1.1 4-1.1 1.2 0 2 .3 2.6 1 .5.7.8 1.7.8 3v.9l-2.6.1c-2.1 0-3.7.4-4.8 1.2s-1.7 1.8-1.7 3.1c0 1.2.4 2.2 1.1 2.9.8.7 1.8 1 3.1 1 1 0 1.9-.2 2.6-.6.7-.4 1.4-1 2.1-1.9h.1l.3 2.2h.9v-9.1c0-1.7-.4-2.9-1.1-3.7-.8-.8-1.9-1.2-3.4-1.2zm3.2 8.3c0 1.5-.4 2.7-1.3 3.5-.8.8-2 1.3-3.5 1.3-1 0-1.7-.2-2.2-.7-.5-.5-.8-1.1-.8-2 0-1.1.4-1.9 1.2-2.4.8-.5 2.2-.8 4.1-.9l2.4-.1.1 1.3zm15.5-8.1h-1.5l-7 7.7h-.1l.1-3.8v-9.8h-1.3v19.7h1.3V387l2.2-2.1 5.2 7h1.5l-5.8-7.9zm7.9-.3c-1.8 0-3.3.7-4.4 2-1.1 1.3-1.6 3.1-1.6 5.3 0 2.2.6 3.9 1.7 5.2 1.1 1.2 2.7 1.8 4.7 1.8.8 0 1.5-.1 2.2-.2.7-.1 1.4-.4 2.1-.7v-1.1c-.9.4-1.7.6-2.3.7-.6.1-1.3.2-2.1.2-1.6 0-2.8-.5-3.7-1.5-.9-1-1.3-2.4-1.3-4.3h9.9v-1c0-1.9-.5-3.5-1.4-4.6-.9-1.2-2.1-1.8-3.8-1.8zm-4.6 6.2c.1-1.6.6-2.9 1.4-3.8.8-.9 1.9-1.3 3.2-1.3 1.2 0 2.2.5 2.9 1.3.7.9 1 2.1 1 3.7h-8.5zm20.5 1.5c-.6-.4-1.5-.8-2.7-1.2-1.5-.5-2.5-1-3-1.4-.5-.4-.8-1-.8-1.7s.3-1.2 1-1.5c.7-.4 1.5-.6 2.7-.6 1.2 0 2.4.3 3.8.8l.5-1.1c-1.3-.6-2.7-.8-4.2-.8-1.6 0-2.8.3-3.6.9-.9.6-1.3 1.4-1.3 2.4 0 .7.1 1.2.4 1.6.3.5.7.9 1.3 1.2.6.4 1.5.8 2.9 1.3 1.3.5 2.2.9 2.8 1.4.6.5.8 1.1.8 1.7 0 .8-.4 1.4-1.1 1.8-.7.5-1.7.7-3.1.7-1.5 0-3-.3-4.4-1v1.4c1.1.6 2.5.8 4.4.8 1.7 0 3-.3 4-1 .9-.7 1.4-1.6 1.4-2.8 0-.6-.1-1.1-.4-1.6-.4-.6-.8-1-1.4-1.3zm20.4-2.2c-.7-.5-1.8-.9-3.2-1.4-1.4-.5-2.3-.9-2.9-1.3-.6-.3-1-.7-1.2-1.2-.2-.4-.4-1-.4-1.7 0-1.1.4-1.9 1.2-2.6.8-.6 1.9-.9 3.3-.9s2.9.3 4.4 1l.5-1.1c-1.5-.7-3.2-1-4.9-1-1.7 0-3.1.4-4.2 1.3s-1.6 2-1.6 3.4c0 1.3.4 2.3 1.1 3 .7.8 2 1.5 3.9 2.1 1.3.4 2.3.8 2.9 1.2.7.4 1.1.8 1.4 1.3.3.5.4 1 .4 1.7 0 1.1-.4 2-1.3 2.7-.9.7-2.1 1-3.6 1-2.1 0-3.8-.3-5.1-.8v1.3c1.2.5 2.9.7 5.2.7 1.9 0 3.4-.4 4.5-1.4 1.1-.9 1.7-2.1 1.7-3.7 0-.8-.2-1.6-.5-2.2-.4-.4-.9-.9-1.6-1.4zm10.8-5.5c-1.8 0-3.3.7-4.4 2-1.1 1.3-1.6 3.1-1.6 5.3 0 2.2.6 3.9 1.7 5.2 1.1 1.2 2.7 1.8 4.7 1.8.8 0 1.5-.1 2.2-.2.7-.1 1.4-.4 2.1-.7v-1.1c-.9.4-1.7.6-2.3.7-.6.1-1.3.2-2.1.2-1.6 0-2.9-.5-3.7-1.5-.9-1-1.3-2.4-1.3-4.3h9.9v-1c0-1.9-.5-3.5-1.4-4.6-.9-1.2-2.1-1.8-3.8-1.8zm-4.5 6.2c.1-1.6.6-2.9 1.4-3.8.8-.9 1.9-1.3 3.2-1.3 1.2 0 2.2.5 2.9 1.3.7.9 1 2.1 1 3.7h-8.5zm19.7-6.2c-2.3 0-3.9.7-4.8 2.2h-.1l-.2-1.9h-1.1v13.7h1.3v-7.6c0-1.9.4-3.2 1.1-4 .8-.8 2-1.2 3.6-1.2 1.2 0 2.1.3 2.7.9.6.6.9 1.6.9 3v8.9h1.2v-9c.1-3.3-1.5-5-4.6-5zm16 7.7c-.6-.4-1.5-.8-2.7-1.2-1.5-.5-2.5-1-3-1.4-.5-.4-.8-1-.8-1.7s.3-1.2 1-1.5c.7-.4 1.6-.6 2.7-.6 1.2 0 2.4.3 3.8.8l.5-1.1c-1.3-.6-2.7-.8-4.2-.8-1.6 0-2.8.3-3.6.9-.9.6-1.3 1.4-1.3 2.4 0 .7.1 1.2.4 1.6.3.5.7.9 1.3 1.2.6.4 1.5.8 2.9 1.3 1.3.5 2.2.9 2.8 1.4.6.5.8 1.1.8 1.7 0 .8-.4 1.4-1.1 1.8-.7.5-1.7.7-3.1.7-1.5 0-3-.3-4.4-1v1.4c1.1.6 2.5.8 4.4.8 1.7 0 3-.3 4-1 .9-.7 1.4-1.6 1.4-2.8 0-.6-.1-1.1-.4-1.6-.4-.6-.9-1-1.4-1.3zm10.4-7.7c-1.8 0-3.3.7-4.4 2-1.1 1.3-1.6 3.1-1.6 5.3 0 2.2.6 3.9 1.7 5.2 1.1 1.2 2.7 1.8 4.7 1.8.8 0 1.5-.1 2.2-.2.7-.1 1.4-.4 2.1-.7v-1.1c-.9.4-1.7.6-2.3.7-.6.1-1.3.2-2.1.2-1.6 0-2.8-.5-3.7-1.5-.9-1-1.3-2.4-1.3-4.3h9.9v-1c0-1.9-.5-3.5-1.4-4.6-.9-1.2-2.2-1.8-3.8-1.8zm-4.6 6.2c.1-1.6.6-2.9 1.4-3.8.8-.9 1.9-1.3 3.2-1.3 1.2 0 2.2.5 2.9 1.3.7.9 1 2.1 1 3.7h-8.5z"/><circle cx="289.5" cy="373.3" r="1.4"/><path d="M476.2 250.9h-1.1v-8.2h-2.8v-1h6.7v1h-2.8v8.2zm7.6 0l-2.8-7.8h-.1l.1 2.6v5.2h-1v-9.2h1.6l2.8 7.7 2.9-7.7h1.6v9.2h-1.1v-5.1l.1-2.6h-.1l-2.9 7.7h-1.1z"/></svg>