<svg xmlns="http://www.w3.org/2000/svg" viewBox="0 0 511.999 511.999"><path d="M346.429 90.43l-64.501 64.5 55.839 55.838H174.233l55.838-55.838-64.501-64.5L0 255.999l165.57 165.57 64.501-64.501-55.838-55.838h163.535l-55.839 55.838 64.501 64.501 165.569-165.57L346.429 90.43zm-41.886 266.639l71.829-71.828H135.63l71.828 71.828-41.888 41.888L22.614 255.999l142.957-142.956 41.888 41.886-71.828 71.828h240.742l-71.829-71.828 41.888-41.886 142.957 142.956L346.43 398.956l-41.887-41.887z"/><path d="M53.533 261.648l11.307-11.306L171.229 356.73l-11.307 11.306zm287.24-106.388l11.306-11.306 106.39 106.389-11.307 11.306z"/></svg>