<svg xmlns="http://www.w3.org/2000/svg" viewBox="0 0 351.787 351.787"><path d="M232.876 313.709H8a8 8 0 0 1-8-8V195.65a8 8 0 0 1 8-8h10.09a8 8 0 0 1 0 16H16v94.059h208.876v-1.937a8 8 0 0 1 16 0v9.937a8 8 0 0 1-8 8zm110.911-13.296h-69.952a8 8 0 0 1 0-16h61.952V54.078H146.506v68.657a8 8 0 0 1-16 0V46.078a8 8 0 0 1 8-8h205.281a8 8 0 0 1 8 8v246.334a8 8 0 0 1-8 8.001zm-69.952-27.205H48.96a8 8 0 0 1-8-8V155.15a8 8 0 0 1 8-8h224.875a8 8 0 0 1 8 8v110.059a7.999 7.999 0 0 1-8 7.999zm-216.875-16h208.875V163.15H56.96v94.058zm250.031 9.928a8 8 0 0 1-3.404-15.245c2.201-1.033 4.57-4.363 4.57-9.232 0-4.869-2.369-8.198-4.57-9.23a8 8 0 1 1 6.797-14.485c8.367 3.926 13.773 13.235 13.773 23.715 0 10.481-5.406 19.791-13.773 23.717a7.964 7.964 0 0 1-3.393.76zm-145.594-26.977c-16.531 0-29.98-13.449-29.98-29.98s13.449-29.98 29.98-29.98c16.532 0 29.981 13.449 29.981 29.98s-13.449 29.98-29.981 29.98zm0-43.96c-7.708 0-13.98 6.271-13.98 13.98s6.271 13.98 13.98 13.98c7.709 0 13.981-6.271 13.981-13.98s-6.272-13.98-13.981-13.98zm77.069 21.98H217.87a8 8 0 0 1 0-16h20.597a8 8 0 1 1-.001 16zm-133.54 0H84.329a8 8 0 0 1 0-16h20.597a8 8 0 0 1 0 16zm192.599-96.241H184.767a8 8 0 0 1 0-16h112.758a8 8 0 0 1 0 16zm-21.8-32.837h-69.656a8 8 0 0 1 0-16h69.656a8 8 0 0 1 0 16z"/></svg>