<svg version="1" xmlns="http://www.w3.org/2000/svg" width="3089.333" height="3238.667" viewBox="0 0 2317.000000 2429.000000"><path d="M982 831.2C898.7 912.1 823.6 984.9 815.3 993l-15.3 14.7 61.1 59.3 61.1 59.2 3.5-3.3c2-1.9 29.9-29 62.2-60.2l58.6-56.8.3 103.5c.1 57 .1 150.3 0 207.3l-.3 103.7L993 1368c-29.4-28.7-57.4-56.1-62.1-60.8l-8.6-8.4-60.6 59.3c-33.3 32.7-60.6 59.8-60.6 60.4 0 1.3 332.1 326.6 333 326.3.4-.2 75.5-73.6 167-163.3l166.2-163-33.9-33.3c-18.6-18.3-46.2-45.3-61.2-59.9l-27.2-26.5-45.8 44.8c-25.1 24.7-53.2 52.3-62.4 61.3l-16.8 16.5v-416.8l15.3 15c29.3 28.8 108.9 105.9 109.6 106.2.6.2 121.3-116.4 121.9-117.8.2-.6-319-311-329.2-320.1l-4.1-3.7-151.5 147zm305 28.7c83.6 81.1 152 147.7 151.9 148-.1.3-9.5 9.6-20.9 20.6-11.4 11-32.4 31.4-46.8 45.3l-26 25.2-71.6-69.5c-39.4-38.2-72.1-69.5-72.6-69.5-.7 0-1 82.1-1 240.4v240.4l-32.6 31.9c-17.9 17.5-32.9 31.9-33.3 32.1-.4.1-15.6-14.2-33.7-31.8l-32.9-32.1-.5-240.8-.5-240.9-50.5 49c-27.8 26.9-60.2 58.4-72.1 69.8l-21.6 20.9-46.4-44.9c-25.5-24.7-46.5-45.5-46.6-46.2-.2-1.6 303.4-296.1 304.8-295.6.5.2 69.3 66.7 152.9 147.7zm-232.1 596.5c26.8 26.3 55.5 54.3 63.9 62.3l15.2 14.5 32.8-31.8c18-17.5 37.9-37 44.2-43.3 35.2-35.2 133.6-131.1 134.5-131.1.5.1 21.9 20.7 47.4 45.8l46.4 45.8-152.8 149.7-152.8 149.7-40.6-39.9c-22.3-21.9-90.9-89.1-152.4-149.4-61.5-60.2-111.8-109.9-111.8-110.4.1-.4 21.2-21.3 46.9-46.5l46.6-45.6 42 41.1c23.1 22.7 63.8 62.7 90.5 89.1z"/></svg>